<svg xmlns="http://www.w3.org/2000/svg" xmlns:xlink="http://www.w3.org/1999/xlink" width="500" zoomAndPan="magnify" viewBox="0 0 375 374.999991" height="500" preserveAspectRatio="xMidYMid meet" version="1.0"><defs><g/><clipPath id="a2a74d4574"><path d="M 109 94 L 267 94 L 267 238.671875 L 109 238.671875 Z M 109 94 " clip-rule="nonzero"/></clipPath><clipPath id="79c4aae933"><path d="M 148 223 L 172 223 L 172 238.671875 L 148 238.671875 Z M 148 223 " clip-rule="nonzero"/></clipPath><clipPath id="3c17808d3b"><path d="M 205 223 L 228 223 L 228 238.671875 L 205 238.671875 Z M 205 223 " clip-rule="nonzero"/></clipPath></defs><path fill="#64ffda" d="M 203.011719 78.054688 C 198.730469 78.039062 194.507812 78.53125 190.347656 79.53125 C 186.1875 80.53125 182.203125 82.011719 178.398438 83.972656 C 179.808594 83.683594 181.230469 83.445312 182.65625 83.261719 C 184.085938 83.078125 185.515625 82.949219 186.953125 82.875 C 188.390625 82.800781 189.832031 82.78125 191.269531 82.8125 C 192.707031 82.847656 194.144531 82.933594 195.578125 83.078125 C 197.007812 83.21875 198.433594 83.417969 199.851562 83.667969 C 201.269531 83.917969 202.675781 84.21875 204.070312 84.574219 C 205.464844 84.933594 206.84375 85.339844 208.207031 85.800781 C 209.570312 86.261719 210.914062 86.773438 212.238281 87.335938 C 213.5625 87.898438 214.863281 88.507812 216.140625 89.167969 C 217.421875 89.828125 218.671875 90.535156 219.894531 91.292969 C 221.121094 92.046875 222.3125 92.847656 223.476562 93.691406 C 224.640625 94.535156 225.769531 95.425781 226.867188 96.355469 C 227.964844 97.285156 229.023438 98.257812 230.042969 99.265625 C 231.066406 100.277344 232.050781 101.324219 232.992188 102.410156 C 233.933594 103.496094 234.835938 104.613281 235.691406 105.765625 C 236.550781 106.921875 237.363281 108.105469 238.132812 109.316406 C 238.898438 110.53125 239.621094 111.773438 240.292969 113.042969 C 240.964844 114.3125 241.589844 115.605469 242.164062 116.917969 C 242.742188 118.234375 243.265625 119.570312 243.738281 120.925781 C 244.210938 122.28125 244.632812 123.652344 245.003906 125.042969 C 245.371094 126.429688 245.6875 127.828125 245.953125 129.238281 C 246.214844 130.652344 246.425781 132.070312 246.578125 133.496094 C 246.734375 134.925781 246.835938 136.355469 246.882812 137.789062 C 246.929688 139.226562 246.921875 140.660156 246.859375 142.09375 C 246.796875 143.527344 246.679688 144.957031 246.507812 146.382812 C 246.335938 147.808594 246.113281 149.226562 245.832031 150.632812 C 245.554688 152.042969 245.222656 153.4375 244.835938 154.820312 C 244.453125 156.203125 244.015625 157.570312 243.527344 158.921875 C 243.039062 160.269531 242.5 161.601562 241.910156 162.910156 C 241.320312 164.21875 240.679688 165.503906 239.992188 166.765625 C 239.304688 168.027344 238.570312 169.261719 237.789062 170.464844 C 237.007812 171.671875 236.183594 172.847656 235.3125 173.992188 C 236.417969 173.152344 237.492188 172.273438 238.527344 171.351562 C 239.566406 170.429688 240.566406 169.46875 241.527344 168.472656 C 242.488281 167.472656 243.410156 166.4375 244.292969 165.367188 C 245.175781 164.296875 246.011719 163.195312 246.808594 162.058594 C 247.605469 160.921875 248.355469 159.757812 249.058594 158.5625 C 249.761719 157.371094 250.417969 156.152344 251.027344 154.90625 C 251.636719 153.660156 252.199219 152.394531 252.707031 151.105469 C 253.21875 149.820312 253.679688 148.511719 254.085938 147.1875 C 254.496094 145.863281 254.851562 144.527344 255.15625 143.175781 C 255.460938 141.824219 255.710938 140.460938 255.910156 139.089844 C 256.105469 137.71875 256.25 136.34375 256.339844 134.960938 C 256.433594 133.578125 256.46875 132.195312 256.449219 130.808594 C 256.433594 129.425781 256.363281 128.042969 256.234375 126.664062 C 256.109375 125.285156 255.929688 123.910156 255.699219 122.546875 C 255.464844 121.179688 255.179688 119.824219 254.839844 118.480469 C 254.503906 117.140625 254.113281 115.8125 253.671875 114.496094 C 253.230469 113.183594 252.734375 111.890625 252.191406 110.617188 C 251.648438 109.339844 251.058594 108.089844 250.417969 106.859375 C 249.777344 105.632812 249.089844 104.429688 248.351562 103.253906 C 247.617188 102.078125 246.839844 100.933594 246.015625 99.816406 C 245.191406 98.703125 244.324219 97.621094 243.417969 96.574219 C 242.507812 95.523438 241.558594 94.515625 240.570312 93.539062 C 239.585938 92.566406 238.5625 91.632812 237.5 90.738281 C 236.441406 89.84375 235.347656 88.988281 234.21875 88.179688 C 233.09375 87.371094 231.933594 86.605469 230.75 85.886719 C 229.5625 85.164062 228.347656 84.492188 227.109375 83.867188 C 225.871094 83.242188 224.609375 82.664062 223.324219 82.136719 C 222.039062 81.609375 220.738281 81.132812 219.417969 80.703125 C 218.09375 80.277344 216.757812 79.902344 215.40625 79.578125 C 214.058594 79.257812 212.695312 78.988281 211.324219 78.769531 C 209.953125 78.550781 208.574219 78.386719 207.191406 78.277344 C 205.804688 78.167969 204.417969 78.109375 203.027344 78.109375 Z M 203.011719 78.054688 " fill-opacity="1" fill-rule="nonzero"/><path fill="#64ffda" d="M 264.140625 131.136719 C 264.140625 131.25 264.140625 131.339844 264.140625 131.433594 C 264.140625 132.46875 264.113281 133.507812 264.0625 134.542969 C 264.011719 135.578125 263.933594 136.609375 263.828125 137.640625 C 263.722656 138.671875 263.59375 139.703125 263.4375 140.726562 C 263.277344 141.75 263.097656 142.773438 262.886719 143.789062 C 262.675781 144.804688 262.441406 145.8125 262.183594 146.816406 C 261.921875 147.820312 261.636719 148.816406 261.324219 149.804688 C 261.011719 150.792969 260.675781 151.773438 260.3125 152.746094 C 259.953125 153.71875 259.566406 154.679688 259.15625 155.632812 C 258.742188 156.585938 258.308594 157.527344 257.847656 158.457031 C 257.390625 159.386719 256.90625 160.304688 256.402344 161.210938 C 255.894531 162.117188 255.367188 163.007812 254.816406 163.886719 C 254.265625 164.765625 253.691406 165.628906 253.09375 166.480469 C 252.5 167.332031 251.882812 168.164062 251.246094 168.984375 C 250.605469 169.800781 249.949219 170.601562 249.269531 171.386719 C 248.589844 172.171875 247.890625 172.941406 247.171875 173.6875 C 246.453125 174.4375 245.71875 175.167969 244.960938 175.882812 C 244.207031 176.59375 243.433594 177.285156 242.640625 177.957031 C 241.851562 178.632812 241.042969 179.28125 240.21875 179.914062 C 239.394531 180.546875 238.554688 181.15625 237.699219 181.746094 C 236.84375 182.335938 235.972656 182.902344 235.089844 183.445312 C 234.203125 183.992188 233.304688 184.511719 232.394531 185.011719 C 231.484375 185.511719 230.558594 185.988281 229.625 186.4375 C 228.6875 186.890625 227.742188 187.320312 226.785156 187.722656 C 225.828125 188.128906 224.859375 188.507812 223.882812 188.863281 C 222.90625 189.21875 221.921875 189.546875 220.929688 189.851562 C 219.933594 190.15625 218.933594 190.4375 217.925781 190.691406 C 216.917969 190.945312 215.90625 191.175781 214.886719 191.375 C 213.867188 191.578125 212.839844 191.757812 211.8125 191.90625 C 210.785156 192.058594 209.753906 192.183594 208.71875 192.28125 C 207.683594 192.378906 206.644531 192.449219 205.605469 192.496094 C 204.570312 192.542969 203.53125 192.558594 202.488281 192.554688 C 201.449219 192.546875 200.410156 192.511719 199.375 192.453125 C 198.335938 192.390625 197.300781 192.304688 196.265625 192.191406 C 195.234375 192.082031 194.203125 191.941406 193.175781 191.777344 C 192.152344 191.613281 191.128906 191.421875 190.113281 191.203125 C 189.097656 190.988281 188.085938 190.746094 187.082031 190.476562 C 186.078125 190.207031 185.082031 189.914062 184.089844 189.597656 C 183.101562 189.277344 182.121094 188.933594 181.148438 188.566406 C 180.179688 188.195312 179.214844 187.804688 178.265625 187.386719 C 177.3125 186.96875 176.371094 186.527344 175.445312 186.0625 C 174.515625 185.597656 173.597656 185.109375 172.695312 184.597656 C 171.789062 184.082031 170.898438 183.550781 170.023438 182.992188 C 169.144531 182.433594 168.285156 181.855469 167.4375 181.253906 C 166.589844 180.65625 165.757812 180.03125 164.941406 179.390625 C 164.128906 178.746094 163.328125 178.082031 162.546875 177.398438 C 161.765625 176.714844 161.003906 176.011719 160.257812 175.289062 C 159.511719 174.566406 158.785156 173.828125 158.078125 173.066406 C 157.367188 172.308594 156.679688 171.53125 156.011719 170.738281 C 155.34375 169.941406 154.695312 169.132812 154.070312 168.304688 C 153.445312 167.476562 152.839844 166.636719 152.253906 165.777344 C 151.671875 164.917969 151.109375 164.046875 150.570312 163.160156 C 150.03125 162.273438 149.515625 161.375 149.023438 160.460938 C 148.53125 159.550781 148.058594 158.625 147.613281 157.6875 C 147.167969 156.75 146.746094 155.804688 146.347656 154.847656 C 145.953125 153.886719 145.578125 152.921875 145.230469 151.945312 C 144.882812 150.96875 144.558594 149.980469 144.261719 148.988281 C 143.964844 147.996094 143.691406 146.996094 143.445312 145.988281 C 143.199219 144.980469 142.976562 143.96875 142.78125 142.949219 C 142.589844 141.929688 142.417969 140.910156 142.277344 139.882812 C 142.132812 138.855469 142.019531 137.824219 141.925781 136.792969 C 141.835938 135.757812 141.773438 134.726562 141.738281 133.6875 C 141.699219 132.652344 141.6875 131.617188 141.703125 130.578125 C 141.71875 129.542969 141.761719 128.507812 141.832031 127.472656 C 141.898438 126.4375 141.996094 125.40625 142.117188 124.375 C 142.238281 123.347656 142.386719 122.320312 142.558594 121.300781 C 142.734375 120.277344 142.933594 119.261719 143.15625 118.246094 C 143.382812 117.234375 143.636719 116.230469 143.914062 115.230469 C 144.1875 114.230469 144.492188 113.238281 144.820312 112.257812 C 145.148438 111.273438 145.5 110.296875 145.878906 109.332031 C 146.253906 108.367188 146.65625 107.410156 147.082031 106.464844 C 147.511719 105.519531 147.960938 104.585938 148.433594 103.664062 C 148.910156 102.738281 149.40625 101.828125 149.925781 100.933594 C 150.445312 100.035156 150.988281 99.152344 151.554688 98.28125 C 152.121094 97.410156 152.710938 96.554688 153.320312 95.714844 C 153.929688 94.875 154.558594 94.054688 155.210938 93.246094 C 155.859375 92.4375 156.53125 91.644531 157.226562 90.871094 C 157.917969 90.097656 158.628906 89.34375 159.359375 88.605469 C 160.089844 87.867188 160.839844 87.148438 161.605469 86.449219 C 162.371094 85.75 163.15625 85.070312 163.957031 84.410156 C 164.761719 83.75 165.578125 83.113281 166.414062 82.492188 C 167.25 81.875 168.097656 81.277344 168.964844 80.703125 C 169.828125 80.128906 170.707031 79.574219 171.601562 79.046875 C 172.492188 78.515625 173.398438 78.007812 174.320312 77.523438 C 175.238281 77.039062 176.167969 76.578125 177.113281 76.140625 C 178.054688 75.703125 179.007812 75.292969 179.972656 74.902344 C 180.9375 74.515625 181.910156 74.152344 182.890625 73.8125 C 183.875 73.472656 184.863281 73.160156 185.863281 72.871094 C 186.863281 72.582031 187.867188 72.316406 188.878906 72.078125 C 189.890625 71.84375 190.90625 71.628906 191.929688 71.445312 C 192.953125 71.257812 193.980469 71.097656 195.011719 70.964844 C 196.042969 70.832031 197.074219 70.722656 198.113281 70.640625 C 199.148438 70.558594 200.1875 70.503906 201.226562 70.476562 C 202.265625 70.449219 203.304688 70.445312 204.34375 70.46875 C 205.382812 70.492188 206.421875 70.542969 207.457031 70.621094 C 208.496094 70.699219 209.527344 70.800781 210.558594 70.929688 C 211.589844 71.058594 212.617188 71.214844 213.640625 71.398438 C 212.386719 70.972656 211.117188 70.578125 209.84375 70.21875 C 208.566406 69.859375 207.277344 69.535156 205.984375 69.242188 C 204.691406 68.953125 203.390625 68.695312 202.082031 68.472656 C 200.773438 68.246094 199.460938 68.058594 198.144531 67.902344 C 196.824219 67.75 195.503906 67.628906 194.179688 67.542969 C 192.855469 67.457031 191.53125 67.40625 190.203125 67.390625 C 188.878906 67.375 187.550781 67.390625 186.226562 67.445312 C 184.898438 67.5 183.574219 67.585938 182.253906 67.707031 C 180.933594 67.832031 179.617188 67.988281 178.304688 68.179688 C 176.992188 68.371094 175.683594 68.597656 174.382812 68.855469 C 173.082031 69.117188 171.789062 69.410156 170.503906 69.738281 C 169.214844 70.066406 167.941406 70.425781 166.675781 70.820312 C 165.40625 71.214844 164.152344 71.644531 162.90625 72.101562 C 161.664062 72.5625 160.433594 73.054688 159.214844 73.582031 C 157.996094 74.105469 156.792969 74.660156 155.605469 75.25 C 154.414062 75.835938 153.242188 76.453125 152.085938 77.105469 C 150.929688 77.753906 149.792969 78.433594 148.671875 79.140625 C 147.550781 79.847656 146.449219 80.585938 145.367188 81.351562 C 144.285156 82.121094 143.226562 82.914062 142.183594 83.734375 C 141.144531 84.558594 140.128906 85.40625 139.132812 86.28125 C 138.136719 87.15625 137.164062 88.058594 136.21875 88.984375 C 135.269531 89.910156 134.347656 90.859375 133.449219 91.832031 C 132.550781 92.808594 131.679688 93.804688 130.835938 94.824219 C 129.988281 95.84375 129.171875 96.886719 128.382812 97.949219 C 127.589844 99.011719 126.828125 100.09375 126.097656 101.199219 C 125.363281 102.300781 124.660156 103.421875 123.984375 104.5625 C 123.308594 105.699219 122.664062 106.855469 122.050781 108.03125 C 121.4375 109.203125 120.855469 110.390625 120.304688 111.597656 C 119.753906 112.800781 119.234375 114.015625 118.75 115.25 C 118.261719 116.480469 117.808594 117.722656 117.386719 118.976562 C 116.964844 120.230469 116.578125 121.496094 116.222656 122.769531 C 115.867188 124.046875 115.546875 125.328125 115.261719 126.621094 C 114.972656 127.914062 114.71875 129.210938 114.5 130.515625 C 114.28125 131.820312 114.097656 133.132812 113.949219 134.445312 C 113.796875 135.761719 113.683594 137.078125 113.601562 138.398438 C 113.523438 139.722656 113.476562 141.042969 113.464844 142.367188 C 113.453125 143.6875 113.480469 145.011719 113.539062 146.332031 C 113.597656 147.65625 113.691406 148.976562 113.816406 150.292969 C 113.945312 151.609375 114.109375 152.921875 114.308594 154.230469 C 114.503906 155.539062 114.734375 156.839844 115 158.136719 C 115.269531 159.433594 115.566406 160.722656 115.902344 162.003906 C 116.234375 163.285156 116.601562 164.554688 117.003906 165.816406 C 117.402344 167.078125 117.839844 168.328125 118.304688 169.566406 C 118.769531 170.804688 119.269531 172.03125 119.800781 173.242188 C 120.332031 174.457031 120.894531 175.652344 121.488281 176.835938 C 122.082031 178.019531 122.707031 179.1875 123.363281 180.335938 C 124.019531 181.488281 124.703125 182.621094 125.421875 183.734375 C 126.136719 184.847656 126.878906 185.945312 127.652344 187.019531 C 128.425781 188.09375 129.226562 189.148438 130.054688 190.183594 C 130.882812 191.21875 131.738281 192.230469 132.621094 193.21875 C 133.5 194.207031 134.410156 195.171875 135.339844 196.113281 C 136.273438 197.054688 137.230469 197.96875 138.210938 198.863281 C 139.191406 199.753906 140.195312 200.617188 141.222656 201.457031 C 142.25 202.296875 143.296875 203.105469 144.363281 203.890625 C 145.433594 204.675781 146.523438 205.429688 147.632812 206.15625 C 148.742188 206.882812 149.867188 207.582031 151.011719 208.25 C 152.160156 208.917969 153.320312 209.554688 154.5 210.160156 C 155.679688 210.765625 156.875 211.34375 158.082031 211.886719 C 159.292969 212.433594 160.515625 212.945312 161.75 213.425781 C 162.988281 213.90625 164.234375 214.351562 165.496094 214.769531 C 166.753906 215.183594 168.027344 215.566406 169.304688 215.914062 C 170.585938 216.261719 171.875 216.578125 173.171875 216.859375 C 174.46875 217.136719 175.769531 217.386719 177.082031 217.597656 C 178.390625 217.8125 179.703125 217.988281 181.023438 218.132812 C 182.34375 218.277344 183.664062 218.386719 184.988281 218.460938 C 186.3125 218.535156 187.640625 218.578125 188.964844 218.582031 C 190.292969 218.585938 191.621094 218.558594 192.945312 218.492188 C 194.269531 218.429688 195.59375 218.332031 196.914062 218.199219 C 198.234375 218.0625 199.550781 217.894531 200.859375 217.695312 C 202.171875 217.492188 203.476562 217.253906 204.777344 216.984375 C 206.074219 216.714844 207.367188 216.410156 208.648438 216.070312 C 209.929688 215.734375 211.203125 215.363281 212.46875 214.957031 C 213.730469 214.550781 214.980469 214.113281 216.222656 213.644531 C 217.460938 213.171875 218.691406 212.671875 219.902344 212.136719 C 221.117188 211.601562 222.316406 211.035156 223.5 210.4375 C 224.683594 209.839844 225.851562 209.210938 227.003906 208.554688 C 228.152344 207.894531 229.285156 207.207031 230.402344 206.488281 C 231.515625 205.773438 232.609375 205.023438 233.6875 204.25 C 234.761719 203.476562 235.816406 202.671875 236.847656 201.839844 C 237.882812 201.011719 238.890625 200.152344 239.878906 199.269531 C 240.867188 198.386719 241.832031 197.480469 242.773438 196.546875 C 243.710938 195.609375 244.628906 194.652344 245.515625 193.671875 C 246.40625 192.691406 247.269531 191.6875 248.105469 190.660156 C 248.941406 189.632812 249.753906 188.582031 250.535156 187.515625 C 251.316406 186.445312 252.070312 185.355469 252.792969 184.246094 C 253.515625 183.140625 254.210938 182.011719 254.875 180.867188 C 255.542969 179.722656 256.175781 178.558594 256.78125 177.382812 C 257.382812 176.203125 257.957031 175.011719 258.496094 173.800781 C 259.039062 172.59375 259.546875 171.371094 260.023438 170.136719 C 260.5 168.902344 260.941406 167.65625 261.355469 166.398438 C 261.765625 165.140625 262.144531 163.871094 262.488281 162.59375 C 262.832031 161.316406 263.140625 160.027344 263.417969 158.734375 C 263.695312 157.441406 263.9375 156.140625 264.144531 154.832031 C 264.351562 153.527344 264.527344 152.214844 264.664062 150.898438 C 264.804688 149.582031 264.910156 148.265625 264.976562 146.941406 C 265.046875 145.621094 265.082031 144.300781 265.082031 142.976562 C 265.074219 139.007812 264.761719 135.058594 264.140625 131.136719 Z M 264.140625 131.136719 " fill-opacity="1" fill-rule="nonzero"/><path fill="#64ffda" d="M 172.445312 184.1875 L 165.050781 198.660156 L 177.625 186.84375 C 175.738281 186.03125 174.035156 185.144531 172.445312 184.1875 Z M 172.445312 184.1875 " fill-opacity="1" fill-rule="nonzero"/><path fill="#64ffda" d="M 150.757812 163.074219 C 150.074219 161.953125 149.429688 160.8125 148.820312 159.652344 C 148.210938 158.488281 147.636719 157.308594 147.105469 156.109375 C 146.570312 154.914062 146.078125 153.699219 145.625 152.46875 C 145.167969 151.238281 144.753906 149.992188 144.382812 148.738281 C 144.007812 147.480469 143.675781 146.210938 143.382812 144.933594 C 143.089844 143.65625 142.839844 142.367188 142.632812 141.074219 C 142.421875 139.78125 142.257812 138.480469 142.132812 137.175781 C 142.007812 135.871094 141.925781 134.5625 141.886719 133.25 C 141.84375 131.941406 141.847656 130.628906 141.894531 129.320312 C 141.9375 128.007812 142.023438 126.703125 142.15625 125.398438 C 142.285156 124.09375 142.457031 122.792969 142.671875 121.5 C 142.882812 120.207031 143.140625 118.921875 143.4375 117.644531 C 143.734375 116.367188 144.070312 115.097656 144.449219 113.84375 C 144.828125 112.589844 145.246094 111.347656 145.707031 110.117188 C 146.164062 108.890625 146.664062 107.675781 147.203125 106.480469 C 147.738281 105.285156 148.316406 104.105469 148.929688 102.945312 C 149.542969 101.789062 150.195312 100.648438 150.882812 99.53125 C 151.570312 98.414062 152.292969 97.320312 153.050781 96.25 C 153.808594 95.179688 154.601562 94.132812 155.429688 93.113281 C 156.253906 92.09375 157.113281 91.101562 158.003906 90.136719 C 158.894531 89.171875 159.8125 88.234375 160.765625 87.332031 C 161.714844 86.425781 162.695312 85.550781 163.703125 84.707031 C 164.710938 83.867188 165.742188 83.058594 166.804688 82.28125 C 167.863281 81.503906 168.945312 80.765625 170.054688 80.058594 C 171.164062 79.351562 172.292969 78.683594 173.441406 78.046875 C 174.59375 77.414062 175.765625 76.820312 176.953125 76.261719 C 178.144531 75.703125 179.351562 75.183594 180.574219 74.703125 C 181.796875 74.222656 183.035156 73.78125 184.285156 73.382812 C 185.539062 72.980469 186.800781 72.621094 188.078125 72.300781 C 189.351562 71.980469 190.636719 71.703125 191.929688 71.464844 C 193.222656 71.230469 194.523438 71.035156 195.828125 70.882812 C 197.132812 70.730469 198.441406 70.617188 199.757812 70.546875 C 198.648438 70.546875 197.539062 70.457031 196.410156 70.457031 C 193.453125 70.453125 190.515625 70.65625 187.589844 71.0625 C 184.660156 71.464844 181.777344 72.070312 178.933594 72.878906 C 176.09375 73.683594 173.320312 74.679688 170.617188 75.871094 C 167.914062 77.0625 165.308594 78.433594 162.796875 79.984375 C 160.285156 81.535156 157.894531 83.253906 155.621094 85.136719 C 153.351562 87.019531 151.21875 89.050781 149.230469 91.230469 C 147.242188 93.410156 145.414062 95.714844 143.75 98.148438 C 142.082031 100.582031 140.589844 103.117188 139.277344 105.757812 C 137.964844 108.398438 136.839844 111.113281 135.90625 113.910156 C 134.972656 116.703125 134.238281 119.550781 133.699219 122.449219 C 133.164062 125.34375 132.832031 128.265625 132.703125 131.210938 C 132.570312 134.152344 132.648438 137.089844 132.925781 140.023438 C 133.207031 142.957031 133.691406 145.855469 134.375 148.722656 C 135.058594 151.589844 135.941406 154.394531 137.015625 157.136719 C 138.09375 159.882812 139.355469 162.539062 140.800781 165.109375 C 142.246094 167.675781 143.863281 170.132812 145.652344 172.476562 Z M 150.757812 163.074219 " fill-opacity="1" fill-rule="nonzero"/><g clip-path="url(#a2a74d4574)"><path fill="#64ffda" d="M 266.800781 238.671875 L 188.199219 94.316406 L 109.582031 238.671875 L 171.226562 238.671875 L 152.179688 223.480469 L 188.199219 153.375 L 224.21875 223.480469 L 205.175781 238.671875 Z M 266.800781 238.671875 " fill-opacity="1" fill-rule="nonzero"/></g><path fill="#64ffda" d="M 233.464844 204.414062 C 228.84375 207.734375 223.914062 210.5 218.671875 212.710938 L 220.519531 216.398438 C 225.300781 212.90625 229.617188 208.910156 233.464844 204.414062 Z M 233.464844 204.414062 " fill-opacity="1" fill-rule="nonzero"/><path fill="#64ffda" d="M 253.175781 133.609375 C 253.171875 132.53125 253.140625 131.453125 253.074219 130.378906 C 253.007812 129.300781 252.910156 128.230469 252.777344 127.160156 C 252.648438 126.089844 252.484375 125.023438 252.292969 123.964844 C 252.097656 122.902344 251.871094 121.847656 251.613281 120.800781 C 251.355469 119.753906 251.066406 118.71875 250.746094 117.6875 C 250.425781 116.65625 250.074219 115.636719 249.691406 114.628906 C 249.3125 113.621094 248.898438 112.625 248.457031 111.640625 C 248.015625 110.65625 247.546875 109.6875 247.046875 108.730469 C 246.546875 107.773438 246.019531 106.835938 245.460938 105.910156 C 244.90625 104.988281 244.324219 104.078125 243.710938 103.191406 C 243.101562 102.300781 242.464844 101.429688 241.800781 100.578125 C 241.136719 99.726562 240.449219 98.898438 239.734375 98.085938 C 239.023438 97.277344 238.285156 96.488281 237.527344 95.722656 C 236.765625 94.957031 235.980469 94.214844 235.175781 93.496094 C 234.371094 92.773438 233.546875 92.082031 232.699219 91.410156 C 231.851562 90.742188 230.984375 90.097656 230.097656 89.476562 C 229.214844 88.859375 228.308594 88.269531 227.390625 87.707031 C 226.46875 87.140625 225.53125 86.605469 224.578125 86.097656 C 223.625 85.589844 222.65625 85.109375 221.671875 84.660156 C 220.691406 84.210938 219.695312 83.789062 218.6875 83.398438 C 217.679688 83.007812 216.664062 82.648438 215.632812 82.316406 C 214.605469 81.988281 213.566406 81.691406 212.519531 81.421875 C 211.472656 81.15625 210.417969 80.917969 209.355469 80.714844 C 208.292969 80.507812 207.226562 80.335938 206.15625 80.195312 C 205.085938 80.054688 204.007812 79.945312 202.929688 79.871094 C 201.851562 79.792969 200.773438 79.75 199.691406 79.738281 C 198.613281 79.722656 197.53125 79.746094 196.453125 79.796875 C 195.371094 79.851562 194.292969 79.933594 193.21875 80.050781 C 192.144531 80.167969 191.074219 80.316406 190.007812 80.5 C 188.945312 80.679688 187.882812 80.894531 186.832031 81.136719 C 185.777344 81.382812 184.734375 81.65625 183.699219 81.964844 C 182.660156 82.269531 181.636719 82.609375 180.617188 82.976562 C 179.878906 83.328125 179.121094 83.675781 178.398438 84.046875 C 179.792969 83.761719 181.195312 83.527344 182.609375 83.347656 C 184.019531 83.164062 185.433594 83.039062 186.855469 82.960938 C 188.277344 82.886719 189.699219 82.867188 191.121094 82.898438 C 192.542969 82.929688 193.960938 83.011719 195.378906 83.148438 C 196.796875 83.289062 198.203125 83.476562 199.605469 83.71875 C 201.007812 83.960938 202.398438 84.257812 203.777344 84.605469 C 205.15625 84.949219 206.523438 85.347656 207.871094 85.796875 C 209.222656 86.246094 210.554688 86.742188 211.867188 87.289062 C 213.179688 87.839844 214.46875 88.433594 215.738281 89.078125 C 217.003906 89.722656 218.246094 90.414062 219.460938 91.152344 C 220.675781 91.890625 221.863281 92.671875 223.019531 93.496094 C 224.179688 94.320312 225.300781 95.191406 226.394531 96.097656 C 227.484375 97.007812 228.542969 97.957031 229.5625 98.945312 C 230.582031 99.9375 231.566406 100.960938 232.507812 102.023438 C 233.453125 103.085938 234.355469 104.179688 235.214844 105.3125 C 236.078125 106.441406 236.894531 107.601562 237.667969 108.792969 C 238.441406 109.980469 239.171875 111.199219 239.851562 112.445312 C 240.535156 113.691406 241.171875 114.957031 241.757812 116.25 C 242.34375 117.542969 242.882812 118.855469 243.371094 120.1875 C 243.859375 121.519531 244.296875 122.871094 244.683594 124.234375 C 245.070312 125.601562 245.40625 126.980469 245.691406 128.367188 C 245.972656 129.757812 246.203125 131.160156 246.382812 132.566406 C 246.5625 133.972656 246.6875 135.386719 246.761719 136.804688 C 246.832031 138.21875 246.851562 139.636719 246.816406 141.054688 C 246.78125 142.476562 246.695312 143.890625 246.554688 145.300781 C 246.414062 146.714844 246.222656 148.117188 245.976562 149.515625 C 245.730469 150.914062 245.429688 152.300781 245.082031 153.675781 C 244.730469 155.050781 244.328125 156.410156 243.878906 157.757812 C 243.425781 159.101562 242.921875 160.429688 242.371094 161.734375 C 241.820312 163.042969 241.21875 164.328125 240.570312 165.589844 C 239.921875 166.855469 239.226562 168.089844 238.484375 169.300781 C 237.742188 170.511719 236.957031 171.695312 236.125 172.847656 C 238.820312 170.332031 241.226562 167.574219 243.351562 164.566406 C 245.476562 161.558594 247.269531 158.367188 248.734375 154.992188 C 250.203125 151.617188 251.308594 148.128906 252.058594 144.527344 C 252.804688 140.925781 253.175781 137.289062 253.175781 133.609375 Z M 253.175781 133.609375 " fill-opacity="1" fill-rule="nonzero"/><g clip-path="url(#79c4aae933)"><path fill="#64ffda" d="M 152.179688 223.480469 L 148.984375 229.824219 L 171.226562 238.671875 Z M 152.179688 223.480469 " fill-opacity="1" fill-rule="nonzero"/></g><g clip-path="url(#3c17808d3b)"><path fill="#64ffda" d="M 224.238281 223.480469 L 227.417969 229.824219 L 205.191406 238.671875 Z M 224.238281 223.480469 " fill-opacity="1" fill-rule="nonzero"/></g><path fill="#64ffda" d="M 164.921875 198.660156 L 188.199219 142.792969 L 208.132812 192.1875 L 188.199219 153.375 Z M 164.921875 198.660156 " fill-opacity="1" fill-rule="nonzero"/><g fill="#64ffda" fill-opacity="1"><g transform="translate(124.772126, 290.408945)"><g><path d="M 16.984375 -29.25 L 28.78125 0 L 21.625 0 L 19.46875 -5.84375 L 8.328125 -5.84375 L 6.171875 0 L -1 0 L 10.8125 -29.25 Z M 17.1875 -11.703125 L 13.9375 -20.203125 L 13.859375 -20.203125 L 10.59375 -11.703125 Z M 17.1875 -11.703125 "/></g></g></g><g fill="#64ffda" fill-opacity="1"><g transform="translate(152.564261, 290.408945)"><g><path d="M 2.125 -29.25 L 12.578125 -29.25 C 15.398438 -29.25 17.695312 -28.5 19.46875 -27 C 21.238281 -25.5 22.125 -23.351562 22.125 -20.5625 C 22.125 -18.414062 21.582031 -16.613281 20.5 -15.15625 C 19.425781 -13.695312 17.96875 -12.675781 16.125 -12.09375 L 26.203125 0 L 17.71875 0 L 8.796875 -11.5625 L 8.796875 0 L 2.125 0 Z M 8.796875 -16.265625 L 9.578125 -16.265625 C 10.191406 -16.265625 10.707031 -16.273438 11.125 -16.296875 C 11.550781 -16.328125 12.035156 -16.410156 12.578125 -16.546875 C 13.128906 -16.691406 13.566406 -16.894531 13.890625 -17.15625 C 14.222656 -17.414062 14.507812 -17.789062 14.75 -18.28125 C 14.988281 -18.78125 15.109375 -19.382812 15.109375 -20.09375 C 15.109375 -20.8125 14.988281 -21.414062 14.75 -21.90625 C 14.507812 -22.40625 14.222656 -22.785156 13.890625 -23.046875 C 13.566406 -23.304688 13.128906 -23.503906 12.578125 -23.640625 C 12.035156 -23.785156 11.550781 -23.867188 11.125 -23.890625 C 10.707031 -23.921875 10.191406 -23.9375 9.578125 -23.9375 L 8.796875 -23.9375 Z M 8.796875 -16.265625 "/></g></g></g><g fill="#64ffda" fill-opacity="1"><g transform="translate(177.945847, 290.408945)"><g><path d="M 14.859375 -29.25 L 14.859375 -8.265625 C 14.859375 -5.398438 14.070312 -3.21875 12.5 -1.71875 C 10.925781 -0.21875 8.675781 0.53125 5.75 0.53125 C 4.96875 0.53125 4.195312 0.4375 3.4375 0.25 C 2.675781 0.0625 2.035156 -0.164062 1.515625 -0.4375 C 1.003906 -0.707031 0.539062 -0.984375 0.125 -1.265625 C -0.289062 -1.554688 -0.59375 -1.796875 -0.78125 -1.984375 L -1.09375 -2.265625 L 1.03125 -7.828125 C 2.425781 -6.503906 3.691406 -5.84375 4.828125 -5.84375 C 5.835938 -5.84375 6.648438 -6.179688 7.265625 -6.859375 C 7.878906 -7.535156 8.1875 -8.570312 8.1875 -9.96875 L 8.1875 -29.25 Z M 14.859375 -29.25 "/></g></g></g><g fill="#64ffda" fill-opacity="1"><g transform="translate(194.571491, 290.408945)"><g><path d="M 24.609375 -29.25 L 24.609375 -10.390625 C 24.609375 -6.796875 23.640625 -4.078125 21.703125 -2.234375 C 19.765625 -0.390625 16.925781 0.53125 13.1875 0.53125 C 9.457031 0.53125 6.617188 -0.390625 4.671875 -2.234375 C 2.734375 -4.078125 1.765625 -6.796875 1.765625 -10.390625 L 1.765625 -29.25 L 8.4375 -29.25 L 8.4375 -12.34375 C 8.4375 -9.976562 8.804688 -8.332031 9.546875 -7.40625 C 10.296875 -6.488281 11.507812 -6.03125 13.1875 -6.03125 C 14.863281 -6.03125 16.070312 -6.488281 16.8125 -7.40625 C 17.5625 -8.332031 17.9375 -9.976562 17.9375 -12.34375 L 17.9375 -29.25 Z M 24.609375 -29.25 "/></g></g></g><g fill="#64ffda" fill-opacity="1"><g transform="translate(220.945657, 290.408945)"><g><path d="M 8.796875 -18.15625 L 8.796875 0 L 2.125 0 L 2.125 -29.25 L 8.796875 -29.25 L 20.421875 -11.09375 L 20.484375 -11.09375 L 20.484375 -29.25 L 27.15625 -29.25 L 27.15625 0 L 20.484375 0 L 8.859375 -18.15625 Z M 8.796875 -18.15625 "/></g></g></g></svg>