<svg xmlns="http://www.w3.org/2000/svg" xmlns:xlink="http://www.w3.org/1999/xlink" viewBox="0,0,256,256" width="25px" height="25px" fill-rule="nonzero"><g fill="#64ffda" fill-rule="nonzero" stroke="none" stroke-width="1" stroke-linecap="butt" stroke-linejoin="miter" stroke-miterlimit="10" stroke-dasharray="" stroke-dashoffset="0" font-family="none" font-weight="none" font-size="none" text-anchor="none" style="mix-blend-mode: normal"><g transform="scale(5.12,5.12)"><path d="M12.5,11c-1.93,0 -3.5,1.57 -3.5,3.5v21c0,1.93 1.57,3.5 3.5,3.5h25c1.93,0 3.5,-1.57 3.5,-3.5v-18c0,-1.93 -1.57,-3.5 -3.5,-3.5h-15c-0.538,0 -1.071,-0.178 -1.5,-0.5l-2.40039,-1.80078c-0.601,-0.451 -1.34661,-0.69922 -2.09961,-0.69922zM12.5,12h4c0.538,0 1.07,0.178 1.5,0.5l2.40039,1.80078c0.601,0.451 1.34661,0.69922 2.09961,0.69922h15c1.378,0 2.5,1.122 2.5,2.5v1.5h-30v-4.5c0,-1.378 1.122,-2.5 2.5,-2.5zM10,20h30v15.5c0,1.378 -1.122,2.5 -2.5,2.5h-25c-1.378,0 -2.5,-1.122 -2.5,-2.5z"></path></g></g></svg>