<svg xmlns="http://www.w3.org/2000/svg" xmlns:xlink="http://www.w3.org/1999/xlink" width="500" zoomAndPan="magnify" viewBox="0 0 375 374.999991" height="500" preserveAspectRatio="xMidYMid meet" version="1.0"><defs><clipPath id="e4e63f6381"><path d="M 112.5 112.5 L 262.5 112.5 L 262.5 262.5 L 112.5 262.5 Z M 112.5 112.5 " clip-rule="nonzero"/></clipPath></defs><g clip-path="url(#e4e63f6381)"><path fill="#ffffff" d="M 144.03125 112.5 L 230.96875 112.5 C 239.648438 112.5 247.515625 116.042969 253.21875 121.78125 C 258.957031 127.484375 262.5 135.351562 262.5 144.03125 L 262.5 230.96875 C 262.5 239.648438 258.957031 247.515625 253.21875 253.21875 C 247.515625 258.957031 239.648438 262.5 230.96875 262.5 L 144.03125 262.5 C 135.351562 262.5 127.484375 258.957031 121.78125 253.21875 C 116.042969 247.515625 112.5 239.648438 112.5 230.96875 L 112.5 144.03125 C 112.5 135.351562 116.042969 127.484375 121.78125 121.78125 C 127.484375 116.042969 135.351562 112.5 144.03125 112.5 Z M 233.34375 137.085938 C 235.042969 137.085938 236.460938 138.503906 236.460938 140.203125 C 236.460938 141.941406 235.042969 143.320312 233.34375 143.320312 C 231.605469 143.320312 230.226562 141.941406 230.226562 140.203125 C 230.226562 138.503906 231.605469 137.085938 233.34375 137.085938 Z M 187.5 145.625 C 210.632812 145.625 229.375 164.367188 229.375 187.5 C 229.375 210.632812 210.632812 229.375 187.5 229.375 C 164.367188 229.375 145.625 210.632812 145.625 187.5 C 145.625 164.367188 164.367188 145.625 187.5 145.625 Z M 223.386719 187.5 C 223.386719 167.695312 207.304688 151.613281 187.5 151.613281 C 167.695312 151.613281 151.613281 167.695312 151.613281 187.5 C 151.613281 207.304688 167.695312 223.386719 187.5 223.386719 C 207.304688 223.386719 223.386719 207.304688 223.386719 187.5 Z M 230.96875 118.523438 L 144.03125 118.523438 C 137.015625 118.523438 130.640625 121.390625 125.996094 125.996094 C 121.390625 130.640625 118.523438 137.015625 118.523438 144.03125 L 118.523438 230.96875 C 118.523438 237.984375 121.390625 244.359375 125.996094 249.003906 C 130.640625 253.609375 137.015625 256.476562 144.03125 256.476562 L 230.96875 256.476562 C 237.984375 256.476562 244.359375 253.609375 249.003906 249.003906 C 253.609375 244.359375 256.476562 237.984375 256.476562 230.96875 L 256.476562 144.03125 C 256.476562 137.015625 253.609375 130.640625 249.003906 125.996094 C 244.359375 121.390625 237.984375 118.523438 230.96875 118.523438 Z M 230.96875 118.523438 " fill-opacity="1" fill-rule="nonzero"/></g></svg>