<svg xmlns="http://www.w3.org/2000/svg" xmlns:xlink="http://www.w3.org/1999/xlink" width="500" zoomAndPan="magnify" viewBox="0 0 375 374.999991" height="500" preserveAspectRatio="xMidYMid meet" version="1.0"><defs><clipPath id="80ee33f8a4"><path d="M 116.902344 126.84375 L 266.902344 126.84375 L 266.902344 248.34375 L 116.902344 248.34375 Z M 116.902344 126.84375 " clip-rule="nonzero"/></clipPath></defs><g clip-path="url(#80ee33f8a4)"><path fill="#64ffda" d="M 136.804688 126.84375 L 116.960938 126.84375 L 116.960938 146.71875 L 221.957031 146.71875 C 235.722656 146.71875 246.988281 158.003906 246.988281 171.800781 C 246.988281 185.585938 235.722656 196.871094 221.957031 196.871094 L 203.449219 196.871094 L 203.449219 162.53125 L 183.605469 162.53125 L 183.605469 248.34375 L 203.449219 248.34375 L 203.449219 216.746094 L 221.957031 216.746094 C 246.648438 216.746094 266.847656 196.515625 266.847656 171.800781 C 266.847656 147.074219 246.648438 126.84375 221.957031 126.84375 Z M 116.960938 194.953125 L 136.804688 194.953125 L 136.804688 248.34375 L 116.960938 248.34375 Z M 150.28125 179.695312 L 170.125 179.695312 L 170.125 248.34375 L 150.28125 248.34375 Z M 150.28125 179.695312 " fill-opacity="1" fill-rule="evenodd"/></g></svg>