<svg xmlns="http://www.w3.org/2000/svg" xmlns:xlink="http://www.w3.org/1999/xlink" width="500" zoomAndPan="magnify" viewBox="0 0 375 374.999991" height="500" preserveAspectRatio="xMidYMid meet" version="1.0"><defs><clipPath id="1ca1bd54a2"><path d="M 112.5 124.3125 L 262.5 124.3125 L 262.5 251.0625 L 112.5 251.0625 Z M 112.5 124.3125 " clip-rule="nonzero"/></clipPath></defs><g clip-path="url(#1ca1bd54a2)"><path fill="#ffffff" d="M 164.695312 251.054688 C 149.578125 251.054688 121.308594 245.753906 113.550781 236.628906 C 112.734375 235.667969 112.507812 234.335938 112.960938 233.160156 C 113.414062 231.980469 114.476562 231.144531 115.722656 230.984375 C 117.863281 230.707031 119.832031 230.484375 121.738281 230.265625 C 127.570312 229.597656 132.609375 229.023438 138.648438 227.335938 C 142.097656 226.359375 144.597656 225.359375 146.925781 224.242188 C 143.609375 223.734375 140.046875 222.882812 136.734375 221.28125 C 129.824219 217.945312 125.457031 212.082031 123.757812 203.855469 C 123.550781 202.859375 123.792969 201.824219 124.421875 201.023438 C 125.050781 200.226562 125.996094 199.746094 127.007812 199.714844 L 127.597656 199.699219 C 129.101562 199.652344 131.28125 199.585938 133.515625 199.40625 C 124.132812 193.847656 116.277344 186.023438 116.824219 172.050781 C 116.867188 171.011719 117.371094 170.046875 118.199219 169.425781 C 119.03125 168.804688 120.09375 168.59375 121.097656 168.847656 C 122.757812 169.273438 124.039062 169.691406 125.167969 170.0625 C 125.261719 170.09375 125.355469 170.125 125.449219 170.152344 C 117.996094 160.636719 113.222656 151.847656 121.457031 134.042969 C 121.890625 133.105469 122.726562 132.410156 123.726562 132.15625 C 124.726562 131.902344 125.789062 132.113281 126.617188 132.730469 C 130.480469 135.613281 133.480469 138.414062 136.382812 141.125 C 141.074219 145.507812 145.511719 149.648438 153.238281 153.738281 C 161.253906 158 172.304688 161.207031 182.378906 162.289062 C 181.191406 143.890625 192.273438 132.226562 202.753906 127.675781 C 208.808594 125.046875 215.523438 124.308594 221.660156 125.59375 C 227.796875 126.878906 233.191406 130.078125 237.351562 134.894531 C 241.90625 134.601562 245.335938 132.996094 249.246094 131.164062 C 250.820312 130.425781 252.449219 129.664062 254.1875 128.984375 C 255.394531 128.507812 256.769531 128.757812 257.734375 129.632812 C 258.699219 130.503906 259.089844 131.84375 258.746094 133.101562 C 257.796875 136.550781 256.226562 139.230469 254.503906 141.519531 C 254.765625 141.445312 255.027344 141.371094 255.289062 141.292969 L 257.882812 140.542969 C 259.199219 140.160156 260.613281 140.597656 261.480469 141.65625 C 262.351562 142.714844 262.515625 144.1875 261.894531 145.410156 C 258.605469 151.878906 254.886719 154.617188 252.167969 156.617188 C 249.453125 158.617188 248.332031 159.441406 248.035156 163.074219 C 246.179688 185.945312 237.882812 207.125 224.667969 222.710938 C 210.101562 239.894531 190.378906 249.671875 167.636719 250.976562 C 166.726562 251.027344 165.742188 251.054688 164.695312 251.054688 Z M 126.042969 236.691406 C 136.917969 241.304688 155.964844 244.742188 167.246094 244.105469 C 213.972656 241.425781 238.058594 201.195312 241.195312 162.515625 C 241.746094 155.753906 244.980469 153.371094 248.109375 151.070312 C 248.5 150.78125 248.890625 150.496094 249.285156 150.191406 C 248.117188 150.527344 246.949219 150.863281 245.785156 151.191406 C 244.398438 151.585938 242.914062 151.070312 242.070312 149.898438 C 241.226562 148.726562 241.199219 147.152344 242.007812 145.953125 C 243.308594 144.023438 244.757812 142.386719 246.15625 140.804688 C 246.527344 140.386719 246.886719 139.976562 247.242188 139.570312 C 243.972656 140.851562 240.351562 141.824219 235.855469 141.824219 C 235.820312 141.824219 235.789062 141.824219 235.757812 141.824219 C 234.695312 141.820312 233.699219 141.328125 233.050781 140.484375 C 226.585938 132.078125 215.761719 129.53125 205.480469 133.996094 C 196.464844 137.90625 186.90625 148.507812 189.640625 165.5 C 189.804688 166.527344 189.5 167.570312 188.808594 168.34375 C 188.121094 169.117188 187.117188 169.539062 186.082031 169.488281 C 174.101562 168.886719 159.953125 165.097656 150.03125 159.824219 C 141.5 155.308594 136.523438 150.660156 131.707031 146.160156 C 129.894531 144.46875 128.042969 142.742188 125.980469 141.003906 C 121.171875 153.96875 125.726562 159.605469 133.433594 169.136719 C 134.390625 170.324219 135.382812 171.550781 136.402344 172.847656 C 137.222656 173.894531 137.367188 175.324219 136.773438 176.515625 C 136.179688 177.707031 134.957031 178.445312 133.628906 178.417969 C 128.757812 178.308594 126.332031 177.667969 123.890625 176.882812 C 125.242188 186.460938 132.539062 191.742188 144.792969 197.527344 C 145.941406 198.066406 146.699219 199.203125 146.761719 200.476562 C 146.820312 201.746094 146.175781 202.949219 145.082031 203.597656 C 141.871094 205.507812 136.757812 206.148438 131.644531 206.421875 C 135.328125 215.679688 143.960938 217.234375 153.953125 218.101562 C 156 218.277344 157.769531 218.433594 159.304688 218.734375 C 160.757812 219.023438 161.863281 220.210938 162.046875 221.6875 C 162.230469 223.160156 161.449219 224.585938 160.109375 225.222656 C 157.964844 226.238281 156.179688 227.191406 154.453125 228.109375 C 150.515625 230.203125 146.796875 232.179688 140.5 233.960938 C 135.21875 235.4375 130.765625 236.121094 126.042969 236.691406 Z M 126.042969 236.691406 " fill-opacity="1" fill-rule="nonzero"/></g></svg>